<?xml version="1.0" standalone="no"?>
<!DOCTYPE svg PUBLIC "-//W3C//DTD SVG 20010904//EN"
 "http://www.w3.org/TR/2001/REC-SVG-20010904/DTD/svg10.dtd">
<svg version="1.0" xmlns="http://www.w3.org/2000/svg"
 width="250.000000pt" height="250.000000pt" viewBox="0 0 250.000000 250.000000"
 preserveAspectRatio="xMidYMid meet">

<g transform="translate(0.000000,250.000000) scale(0.100000,-0.100000)"
fill="#000000" stroke="none">
<path d="M0 1250 l0 -1250 1250 0 1250 0 0 1250 0 1250 -1250 0 -1250 0 0
-1250z m1284 851 c12 -5 -6 -7 -45 -7 -70 0 -261 -46 -459 -109 -147 -47 -234
-88 -248 -117 -6 -13 -11 -18 -11 -12 -3 50 130 111 414 188 255 69 300 76
349 57z m99 -92 c166 -41 339 -95 415 -129 45 -21 65 -36 73 -57 17 -43 5
-529 -15 -616 -29 -125 -91 -260 -163 -357 -96 -127 -264 -267 -405 -336 l-57
-28 -43 20 c-73 32 -219 135 -295 207 -100 95 -208 256 -250 371 -50 141 -56
181 -60 469 -5 305 -7 297 56 323 144 60 511 163 584 164 21 0 93 -14 160 -31z"/>
<path d="M1050 1924 c-74 -19 -191 -54 -260 -77 l-125 -42 1 -245 c0 -220 3
-254 24 -340 45 -185 174 -387 325 -509 92 -74 199 -135 225 -128 46 12 190
109 262 176 90 84 191 230 232 332 52 133 58 178 63 450 l5 256 -48 20 c-116
49 -470 144 -534 142 -19 0 -96 -16 -170 -35z m-235 -114 c3 -5 0 -18 -7 -29
-19 -30 6 -54 49 -46 25 4 33 2 33 -9 0 -22 -17 -28 -39 -15 -15 10 -22 9 -37
-5 -14 -15 -15 -22 -5 -37 13 -22 7 -39 -15 -39 -11 0 -14 8 -9 33 3 17 1 39
-4 47 -9 13 -14 13 -32 2 -14 -9 -25 -10 -31 -4 -17 17 1 32 31 26 23 -5 30
-2 35 14 4 11 4 32 0 46 -5 20 -2 26 9 26 9 0 18 -4 22 -10z m477 -11 c124
-26 259 -124 323 -233 l29 -49 -28 -53 c-40 -76 -127 -158 -215 -202 -72 -35
-80 -37 -175 -37 -92 0 -107 3 -166 31 -36 17 -89 51 -119 75 -58 47 -131 149
-131 184 0 54 137 203 227 245 52 25 137 48 175 49 15 1 51 -4 80 -10z m348
-3 c0 -8 -5 -18 -10 -21 -13 -8 -42 14 -34 26 9 15 44 10 44 -5z m55 -6 c0 -8
-8 -16 -17 -18 -13 -2 -18 3 -18 18 0 15 5 20 18 18 9 -2 17 -10 17 -18z m-95
-25 c13 -16 6 -35 -15 -35 -18 0 -26 15 -19 34 8 20 18 20 34 1z m138 -46 c-4
-47 -32 -46 -35 1 -1 35 14 57 30 41 5 -5 7 -24 5 -42z m-71 15 c8 -21 -13
-42 -28 -27 -13 13 -5 43 11 43 6 0 13 -7 17 -16z m-62 -24 c4 -6 1 -18 -6
-26 -12 -14 -14 -14 -26 2 -7 10 -13 21 -13 26 0 12 38 10 45 -2z m35 -55 c0
-23 -2 -24 -21 -15 -16 9 -18 14 -8 26 17 21 29 17 29 -11z m59 11 c9 -11 8
-15 -5 -20 -26 -10 -34 -7 -34 14 0 23 22 27 39 6z m-55 -292 c20 -8 21 -48 1
-64 -32 -26 -74 16 -53 54 9 17 26 20 52 10z m-739 -63 c3 -5 1 -12 -5 -16
-17 -11 -11 -51 11 -71 17 -15 23 -16 40 -6 22 14 39 8 39 -13 0 -16 -27 -28
-35 -15 -7 12 -45 13 -45 3 0 -5 14 -17 30 -28 32 -21 40 -45 15 -45 -8 0 -15
5 -15 12 0 14 -30 48 -42 48 -12 0 -10 -44 4 -58 9 -9 9 -15 1 -23 -21 -21
-33 0 -27 44 l7 42 -22 -19 c-11 -11 -21 -25 -21 -32 0 -19 -20 -28 -33 -14
-9 9 -4 18 21 41 17 16 32 31 32 34 0 9 -36 5 -46 -5 -15 -15 -36 11 -24 30 7
12 12 12 22 2 14 -14 48 -16 48 -3 0 5 -14 19 -30 31 -17 12 -28 26 -25 31 10
16 24 10 37 -17 18 -38 33 -30 31 16 -1 28 2 40 12 40 8 0 16 -4 20 -9z m35
-61 c-31 -24 -36 -19 -14 15 12 19 20 23 28 15 8 -8 4 -16 -14 -30z m712 -113
c-2 -124 -3 -129 -32 -169 l-30 -41 0 172 0 172 33 -3 32 -3 -3 -128z m-127
69 c0 -36 -27 -56 -52 -40 -40 25 -20 77 26 72 21 -2 26 -8 26 -32z m-397 -28
c17 -17 15 -58 -4 -65 -36 -13 -68 33 -44 62 15 18 32 19 48 3z m392 -196 l0
-138 -30 -29 -30 -29 0 167 0 167 30 0 30 0 0 -138z m-382 -102 c-2 -104 -4
-190 -6 -190 -2 0 -16 10 -32 22 l-30 22 0 168 0 168 35 0 36 0 -3 -190z m132
170 c8 -14 8 -26 0 -40 -14 -26 -56 -26 -70 -1 -13 25 -13 27 6 45 21 22 51
20 64 -4z m120 -14 c16 -21 9 -60 -13 -64 -25 -5 -47 16 -47 43 0 34 38 47 60
21z m-392 -8 c36 -36 -6 -91 -46 -62 -35 24 -23 74 18 74 9 0 21 -5 28 -12z
m265 -152 c-2 -38 -4 -70 -5 -71 -2 -1 -15 -5 -30 -9 l-28 -6 0 80 0 81 33 -3
32 -3 -2 -69z m129 -46 c-3 -83 -6 -97 -25 -114 l-22 -18 -6 63 c-4 35 -7 88
-8 117 l-1 53 33 -3 32 -3 -3 -95z m-382 13 l0 -67 -35 34 c-26 25 -35 42 -35
67 0 31 2 33 35 33 l35 0 0 -67z m225 -119 c8 -20 15 -37 15 -38 0 -1 -15 -2
-34 -2 -19 0 -32 5 -30 11 16 45 24 65 29 65 2 0 12 -16 20 -36z m55 -9 c0
-19 -4 -35 -10 -35 -5 0 -10 16 -10 35 0 19 5 35 10 35 6 0 10 -16 10 -35z"/>
<path d="M1130 1756 c-34 -10 -128 -51 -136 -60 -1 0 2 -29 6 -64 4 -34 4
-115 0 -180 -8 -116 -8 -117 17 -138 13 -11 53 -31 89 -44 81 -28 192 -25 269
9 84 38 81 26 75 236 l-5 186 -68 30 c-80 36 -178 45 -247 25z m175 -20 c29
-12 26 -13 -51 -18 -86 -6 -161 -32 -201 -70 l-23 -21 0 31 c0 23 7 36 25 48
62 41 190 56 250 30z m-235 -150 c0 -2 -7 -6 -15 -10 -8 -3 -15 -1 -15 4 0 6
7 10 15 10 8 0 15 -2 15 -4z m168 -24 c4 -28 28 -29 35 -2 3 11 10 20 16 20 6
0 11 -9 11 -20 0 -13 7 -20 20 -20 13 0 20 7 20 20 0 11 5 20 10 20 6 0 10 -7
10 -16 0 -9 8 -23 18 -30 16 -13 16 -15 0 -28 -10 -7 -18 -21 -18 -30 0 -23
-17 -20 -23 4 -3 11 -12 20 -21 20 -9 0 -16 -8 -16 -20 0 -11 -5 -20 -11 -20
-6 0 -13 9 -16 20 -7 26 -31 26 -35 0 -4 -27 -22 -27 -26 0 -4 27 -42 27 -42
0 0 -11 -7 -20 -15 -20 -8 0 -15 9 -15 20 0 11 -7 20 -15 20 -8 0 -15 -9 -15
-20 0 -11 -7 -20 -15 -20 -8 0 -15 7 -15 16 0 9 -8 23 -17 30 -17 13 -17 15 0
28 9 7 17 18 17 25 0 6 7 11 15 11 8 0 15 -7 15 -15 0 -22 27 -18 33 5 3 11
10 20 16 20 6 0 11 -9 11 -20 0 -13 7 -20 20 -20 15 0 20 7 20 26 0 31 23 28
28 -4z"/>
<path d="M884 1580 l-45 -71 24 -42 c14 -23 37 -53 51 -66 l26 -24 -2 136 c-1
76 -3 137 -5 137 -2 0 -24 -32 -49 -70z"/>
<path d="M1510 1504 c0 -126 0 -127 20 -109 11 10 34 40 51 67 l32 49 -39 56
c-60 87 -64 84 -64 -63z"/>
</g>
</svg>
